<?xml version="1.0" standalone="no"?>
<!DOCTYPE svg PUBLIC "-//W3C//DTD SVG 20010904//EN"
 "http://www.w3.org/TR/2001/REC-SVG-20010904/DTD/svg10.dtd">
<svg version="1.0" xmlns="http://www.w3.org/2000/svg"
 width="618.000000pt" height="229.000000pt" viewBox="0 0 618.000000 229.000000"
 preserveAspectRatio="xMidYMid meet">

<g transform="translate(0.000000,229.000000) scale(0.100000,-0.100000)"
fill="#000000" stroke="none">
<path d="M547 1739 c-124 -18 -258 -106 -327 -216 -65 -103 -70 -137 -70 -523
0 -318 2 -353 20 -411 52 -171 200 -299 379 -329 89 -15 195 4 289 52 116 58
217 195 242 327 5 30 10 196 10 370 0 249 -3 329 -15 374 -62 239 -288 391
-528 356z m178 -34 c150 -40 265 -146 316 -293 17 -50 19 -88 19 -409 0 -329
-1 -358 -20 -414 -51 -151 -161 -254 -317 -294 -243 -63 -495 100 -543 354
-13 70 -13 632 0 702 48 253 301 417 545 354z"/>
<path d="M497 1364 c-59 -18 -122 -78 -136 -131 -26 -91 -8 -164 53 -222 20
-19 36 -42 37 -50 0 -11 2 -12 6 -4 3 10 12 9 35 -3 17 -9 74 -31 127 -51 125
-45 190 -81 213 -118 34 -56 17 -108 -53 -169 -59 -50 -125 -70 -211 -63 -117
10 -193 61 -219 146 -17 58 -4 103 52 178 l50 68 -51 -55 c-71 -75 -83 -102
-78 -166 9 -106 100 -172 251 -181 147 -10 263 43 311 139 30 59 33 112 11
165 -31 73 -76 105 -241 169 -206 79 -235 102 -242 186 -3 43 0 59 20 88 33
50 98 80 171 80 113 0 156 -42 165 -160 7 -94 45 -127 92 -80 43 43 13 141
-60 195 -72 53 -203 70 -303 39z"/>
<path d="M1927 1533 c-3 -5 -2 -15 4 -23 12 -20 12 -422 -1 -454 l-10 -26 170
0 c163 0 170 1 170 20 0 24 1 24 -38 5 -23 -12 -56 -15 -134 -13 l-103 3 -3
113 -3 112 86 0 c48 0 95 -5 106 -10 17 -9 19 -7 19 18 l0 30 -41 -15 c-24 -8
-68 -13 -103 -11 l-61 3 -2 125 -1 125 -25 3 c-14 2 -27 -1 -30 -5z"/>
<path d="M2165 1530 l-40 -7 40 -2 c22 0 51 -8 64 -17 22 -16 23 -15 19 7 -3
27 -20 31 -83 19z"/>
<path d="M2297 1534 c-3 -4 3 -20 14 -35 19 -27 20 -41 17 -249 -2 -142 1
-220 7 -220 6 0 9 75 7 211 -2 134 0 209 6 205 6 -3 81 -99 168 -213 l159
-208 2 40 c7 121 7 475 0 472 -5 -1 -8 -99 -7 -216 l1 -214 -164 214 c-152
200 -187 235 -210 213z"/>
<path d="M3178 1358 c1 -101 7 -200 12 -220 26 -92 188 -139 291 -85 73 39 77
53 81 285 2 130 -1 202 -7 202 -6 0 -9 -69 -7 -193 2 -112 -1 -204 -7 -219
-28 -74 -145 -109 -234 -70 -75 33 -79 50 -75 283 l3 199 -30 0 -30 0 3 -182z"/>
<path d="M3620 1530 c0 -6 7 -24 15 -40 13 -25 14 -61 10 -217 -3 -104 -8
-200 -10 -215 -3 -20 0 -28 10 -28 10 0 12 9 8 35 -3 19 -2 109 2 201 l7 166
98 -198 97 -199 20 45 c11 25 53 128 94 230 l74 185 6 -75 c11 -126 10 -350
-1 -371 -10 -17 -7 -19 35 -19 44 0 45 1 34 23 -9 15 -14 98 -16 252 l-4 230
-25 0 c-23 0 -31 -13 -90 -160 -36 -88 -74 -184 -85 -212 -11 -29 -22 -53 -25
-53 -2 0 -51 97 -108 215 -86 177 -108 215 -125 215 -12 0 -21 -5 -21 -10z"/>
<path d="M1583 1514 c-62 -27 -81 -88 -42 -138 24 -30 77 -59 158 -87 117 -41
161 -82 152 -144 -9 -62 -80 -104 -174 -105 -71 0 -122 22 -149 64 l-19 31 3
-30 c2 -24 12 -34 48 -53 38 -20 57 -23 127 -20 72 3 86 7 125 33 29 21 47 43
57 71 31 90 -20 149 -188 213 -118 45 -149 71 -136 111 8 26 47 52 93 61 34 6
35 7 7 7 -16 0 -44 -6 -62 -14z"/>
<path d="M1733 1519 c48 -11 84 -35 102 -68 l14 -26 0 25 c1 14 -3 30 -7 37
-12 19 -78 43 -114 42 l-33 -1 38 -9z"/>
<path d="M2873 1523 c9 -2 23 -2 30 0 6 3 -1 5 -18 5 -16 0 -22 -2 -12 -5z"/>
<path d="M2985 1515 c36 -9 59 -24 83 -52 19 -21 31 -30 28 -20 -3 10 -6 25
-6 33 0 20 -76 54 -120 53 -33 0 -32 -1 15 -14z"/>
<path d="M2809 1505 c-14 -8 -32 -27 -38 -43 -28 -68 19 -117 162 -171 153
-57 189 -99 152 -169 -27 -49 -91 -82 -162 -82 -68 0 -112 19 -147 61 l-27 34
3 -30 c4 -43 52 -67 144 -73 131 -8 213 42 222 138 4 48 3 51 -39 94 -33 32
-66 51 -129 75 -115 42 -148 60 -156 83 -10 32 4 67 34 82 15 9 23 15 17 15
-5 0 -22 -6 -36 -14z"/>
<path d="M1531 945 c12 -42 8 -422 -5 -447 -7 -16 -3 -18 33 -18 38 0 41 2 31
19 -5 11 -10 65 -10 120 l0 101 76 0 c41 0 84 -5 95 -10 17 -10 19 -7 19 19 0
29 0 29 -30 15 -19 -10 -51 -14 -92 -12 l-63 3 -3 118 -3 117 104 0 c93 0 107
-2 133 -22 24 -19 27 -20 21 -4 -4 10 -7 22 -7 27 0 5 -67 9 -154 9 l-154 0 9
-35z"/>
<path d="M2010 967 c-19 -6 -56 -32 -82 -58 -186 -186 0 -493 254 -417 45 13
122 77 143 118 88 170 -32 372 -219 369 -33 -1 -77 -6 -96 -12z m193 -27 c68
-43 101 -112 102 -210 0 -85 -20 -133 -77 -187 -157 -150 -381 40 -318 269 14
50 67 117 110 139 54 30 126 25 183 -11z"/>
<path d="M2367 973 c-4 -3 -7 -13 -7 -20 0 -12 4 -11 22 1 16 11 46 16 100 16
l78 0 0 -226 c0 -136 -4 -233 -10 -245 -10 -17 -7 -19 27 -19 l38 0 -3 245 -3
245 78 0 c57 0 85 -5 103 -17 22 -16 23 -16 17 1 -4 10 -7 20 -7 22 0 7 -426
4 -433 -3z"/>
<path d="M2975 969 c-17 -5 -50 -25 -73 -45 -171 -146 -86 -421 138 -441 149
-14 270 99 270 252 -1 100 -55 184 -145 226 -43 20 -136 24 -190 8z m188 -30
c78 -52 119 -160 97 -262 -29 -144 -165 -226 -278 -168 -163 83 -162 359 3
449 11 6 45 12 76 12 46 0 64 -5 102 -31z"/>
<path d="M3531 966 c-153 -55 -209 -256 -108 -388 49 -64 122 -98 211 -98 76
1 135 17 167 46 15 14 19 31 19 91 0 50 4 73 12 73 9 0 9 3 1 11 -8 8 -34 9
-85 3 -71 -8 -72 -8 -28 -14 l45 -5 3 -77 3 -78 -33 -20 c-27 -17 -46 -20
-105 -18 -61 3 -78 8 -114 33 -64 45 -99 118 -99 206 0 77 13 118 55 167 40
47 94 72 159 72 71 0 101 -12 144 -58 l35 -37 -7 30 c-8 35 -27 52 -76 65 -47
13 -157 11 -199 -4z"/>
<path d="M3915 731 l0 -251 40 0 c30 0 36 3 27 12 -7 7 -12 41 -12 84 0 72 0
73 28 77 l27 4 -27 2 -28 1 0 155 0 155 60 0 c131 0 193 -68 171 -188 -12 -62
-51 -98 -118 -113 -53 -10 -54 -11 -30 -24 13 -7 55 -45 93 -84 51 -53 78 -73
104 -78 34 -6 33 -5 -52 82 l-86 89 36 17 c128 58 138 224 17 284 -30 15 -66
20 -145 23 l-105 4 0 -251z"/>
<path d="M4514 943 c-32 -77 -127 -330 -141 -378 -8 -27 -19 -54 -24 -59 -14
-15 -11 -26 6 -26 8 0 15 9 15 20 0 30 40 144 53 152 7 4 23 8 37 9 22 1 21 2
-6 8 l-31 6 55 143 c30 78 57 141 59 139 2 -2 32 -80 67 -173 73 -191 73 -193
-24 -150 -32 14 -66 26 -76 25 -11 0 -1 -6 21 -13 22 -8 54 -21 70 -30 17 -9
40 -16 53 -16 25 0 52 -49 52 -95 0 -22 4 -25 35 -25 34 0 34 0 20 28 -8 15
-37 91 -65 170 -101 285 -109 302 -136 302 -18 0 -28 -9 -40 -37z"/>
<path d="M4845 730 l0 -250 40 0 c30 0 36 3 27 12 -8 8 -12 49 -12 120 l0 108
76 0 c41 0 84 -5 95 -10 17 -10 19 -7 19 19 0 29 0 30 -27 15 -16 -8 -56 -14
-95 -14 l-68 0 0 120 0 120 104 0 c92 0 106 -3 132 -22 24 -19 27 -20 21 -4
-4 10 -7 22 -7 27 0 5 -67 9 -152 9 l-153 0 0 -250z"/>
<path d="M5225 730 l0 -250 38 0 c34 0 37 2 27 19 -15 29 -14 453 2 469 9 9 3
12 -27 12 l-40 0 0 -250z"/>
<path d="M5496 829 c-32 -84 -71 -188 -86 -233 -15 -45 -31 -89 -35 -98 -5
-12 -2 -18 7 -18 9 0 15 11 16 28 1 15 12 54 25 87 l24 60 54 -1 c39 -2 47 0
29 6 -14 4 -38 8 -54 9 -18 1 -26 5 -23 14 3 6 26 68 53 137 26 69 50 128 53
132 6 7 132 -315 131 -334 0 -13 -26 -9 -75 13 -25 11 -49 19 -51 16 -7 -7 92
-47 116 -47 22 0 37 -29 47 -87 5 -29 10 -33 35 -33 25 0 29 3 23 18 -4 9 -38
100 -75 202 -110 299 -101 280 -130 280 -25 0 -30 -10 -84 -151z"/>
</g>
</svg>
